<?xml version="1.0" encoding="UTF-8"?>
<!DOCTYPE svg
PUBLIC "-//W3C//DTD SVG 1.1//EN"
       "http://www.w3.org/Graphics/SVG/1.1/DTD/svg11.dtd">
<svg viewBox="92 -5 1042 715" width="950px" height="720px" xmlns="http://www.w3.org/2000/svg" version="1.1">
   <line x1="508" y1="324" x2="518" y2="324" style="stroke:#c00;stroke-width:1;"/>
   <line x1="450" y1="560" x2="460" y2="560" style="stroke:#c00;stroke-width:1;"/>
   <line x1="518" y1="324" x2="450" y2="560" style="stroke:#c00;stroke-width:1;"/>
   <line x1="515.5" y1="324" x2="511.96446609407" y2="327.53553390593" style="stroke:#c00;stroke-width:2;"/>
   <line x1="515.5" y1="324" x2="511.96446609407" y2="320.46446609407" style="stroke:#c00;stroke-width:2;"/>
   <line x1="455" y1="560" x2="451.46446609407" y2="563.53553390593" style="stroke:#c00;stroke-width:2;"/>
   <line x1="455" y1="560" x2="451.46446609407" y2="556.46446609407" style="stroke:#c00;stroke-width:2;"/>
   <line x1="890" y1="230" x2="880" y2="230" style="stroke:#b0b;stroke-width:1;"/>
   <line x1="326" y1="75" x2="316" y2="75" style="stroke:#b0b;stroke-width:1;"/>
   <line x1="880" y1="230" x2="326" y2="75" style="stroke:#b0b;stroke-width:1;"/>
   <line x1="882.5" y1="230" x2="886.03553390593" y2="233.53553390593" style="stroke:#b0b;stroke-width:2;"/>
   <line x1="882.5" y1="230" x2="886.03553390593" y2="226.46446609407" style="stroke:#b0b;stroke-width:2;"/>
   <line x1="321" y1="75" x2="324.53553390593" y2="78.535533905933" style="stroke:#b0b;stroke-width:2;"/>
   <line x1="321" y1="75" x2="324.53553390593" y2="71.464466094067" style="stroke:#b0b;stroke-width:2;"/>
   <line x1="244" y1="549" x2="254" y2="549" style="stroke:#333;stroke-width:1;"/>
   <line x1="790" y1="50" x2="800" y2="50" style="stroke:#333;stroke-width:1;"/>
   <line x1="254" y1="549" x2="790" y2="50" style="stroke:#333;stroke-width:1;"/>
   <line x1="251.5" y1="549" x2="247.96446609407" y2="552.53553390593" style="stroke:#333;stroke-width:2;"/>
   <line x1="251.5" y1="549" x2="247.96446609407" y2="545.46446609407" style="stroke:#333;stroke-width:2;"/>
   <line x1="795" y1="50" x2="791.46446609407" y2="53.535533905933" style="stroke:#333;stroke-width:2;"/>
   <line x1="795" y1="50" x2="791.46446609407" y2="46.464466094067" style="stroke:#333;stroke-width:2;"/>
   <line x1="247" y1="350" x2="257" y2="350" style="stroke:#cb0;stroke-width:1;"/>
   <line x1="450" y1="560" x2="460" y2="560" style="stroke:#cb0;stroke-width:1;"/>
   <line x1="257" y1="350" x2="450" y2="560" style="stroke:#cb0;stroke-width:1;"/>
   <line x1="254.5" y1="350" x2="250.96446609407" y2="353.53553390593" style="stroke:#cb0;stroke-width:2;"/>
   <line x1="254.5" y1="350" x2="250.96446609407" y2="346.46446609407" style="stroke:#cb0;stroke-width:2;"/>
   <line x1="455" y1="560" x2="451.46446609407" y2="563.53553390593" style="stroke:#cb0;stroke-width:2;"/>
   <line x1="455" y1="560" x2="451.46446609407" y2="556.46446609407" style="stroke:#cb0;stroke-width:2;"/>
   <line x1="160" y1="230" x2="150" y2="230" style="stroke:#bbb;stroke-width:1;"/>
   <line x1="169" y1="75" x2="179" y2="75" style="stroke:#bbb;stroke-width:1;"/>
   <line x1="150" y1="230" x2="169" y2="75" style="stroke:#bbb;stroke-width:1;"/>
   <line x1="152.5" y1="230" x2="156.03553390593" y2="233.53553390593" style="stroke:#bbb;stroke-width:2;"/>
   <line x1="152.5" y1="230" x2="156.03553390593" y2="226.46446609407" style="stroke:#bbb;stroke-width:2;"/>
   <line x1="174" y1="75" x2="170.46446609407" y2="78.535533905933" style="stroke:#bbb;stroke-width:2;"/>
   <line x1="174" y1="75" x2="170.46446609407" y2="71.464466094067" style="stroke:#bbb;stroke-width:2;"/>
   <line x1="870" y1="450" x2="860" y2="450" style="stroke:#0b0;stroke-width:1;"/>
   <line x1="607" y1="560" x2="597" y2="560" style="stroke:#0b0;stroke-width:1;"/>
   <line x1="860" y1="450" x2="607" y2="560" style="stroke:#0b0;stroke-width:1;"/>
   <line x1="862.5" y1="450" x2="866.03553390593" y2="453.53553390593" style="stroke:#0b0;stroke-width:2;"/>
   <line x1="862.5" y1="450" x2="866.03553390593" y2="446.46446609407" style="stroke:#0b0;stroke-width:2;"/>
   <line x1="602" y1="560" x2="605.53553390593" y2="563.53553390593" style="stroke:#0b0;stroke-width:2;"/>
   <line x1="602" y1="560" x2="605.53553390593" y2="556.46446609407" style="stroke:#0b0;stroke-width:2;"/>
   <line x1="890" y1="610" x2="880" y2="610" style="stroke:#c00;stroke-width:1;"/>
   <line x1="607" y1="560" x2="597" y2="560" style="stroke:#c00;stroke-width:1;"/>
   <line x1="880" y1="610" x2="607" y2="560" style="stroke:#c00;stroke-width:1;"/>
   <line x1="882.5" y1="610" x2="886.03553390593" y2="613.53553390593" style="stroke:#c00;stroke-width:2;"/>
   <line x1="882.5" y1="610" x2="886.03553390593" y2="606.46446609407" style="stroke:#c00;stroke-width:2;"/>
   <line x1="602" y1="560" x2="605.53553390593" y2="563.53553390593" style="stroke:#c00;stroke-width:2;"/>
   <line x1="602" y1="560" x2="605.53553390593" y2="556.46446609407" style="stroke:#c00;stroke-width:2;"/>
   <rect width="137" height="20" x="610" y="280" style="fill:#007;stroke:black;"/>
   <text width="137" height="20" x="615" y="294" style="fill:#fff;" font-family="Arial" font-size="16px"> admin</text>
   <rect width="137" height="20" x="610" y="300" style="fill:#aea;stroke:black;"/>
   <text width="137" height="20" x="615" y="314" style="fill:black;" font-family="Arial" font-size="16px">id</text>
   <rect width="137" height="20" x="610" y="320" style="fill:none;stroke:black;"/>
   <text width="137" height="20" x="615" y="334" style="fill:black;" font-family="Arial" font-size="16px">name</text>
   <rect width="137" height="20" x="610" y="340" style="fill:none;stroke:black;"/>
   <text width="137" height="20" x="615" y="354" style="fill:black;" font-family="Arial" font-size="16px">email</text>
   <rect width="137" height="20" x="610" y="360" style="fill:none;stroke:black;"/>
   <text width="137" height="20" x="615" y="374" style="fill:black;" font-family="Arial" font-size="16px">password</text>
   <rect width="137" height="20" x="610" y="380" style="fill:none;stroke:black;"/>
   <text width="137" height="20" x="615" y="394" style="fill:black;" font-family="Arial" font-size="16px">created_at</text>
   <rect width="137" height="20" x="371" y="274" style="fill:#007;stroke:black;"/>
   <text width="137" height="20" x="376" y="288" style="fill:#fff;" font-family="Arial" font-size="16px"> booking_detail</text>
   <rect width="137" height="20" x="371" y="294" style="fill:#aea;stroke:black;"/>
   <text width="137" height="20" x="376" y="308" style="fill:black;" font-family="Arial" font-size="16px">pnr_no</text>
   <rect width="137" height="20" x="371" y="314" style="fill:none;stroke:black;"/>
   <text width="137" height="20" x="376" y="328" style="fill:black;" font-family="Arial" font-size="16px">master_pid</text>
   <rect width="137" height="20" x="371" y="334" style="fill:none;stroke:black;"/>
   <text width="137" height="20" x="376" y="348" style="fill:black;" font-family="Arial" font-size="16px">route_id</text>
   <rect width="137" height="20" x="371" y="354" style="fill:none;stroke:black;"/>
   <text width="137" height="20" x="376" y="368" style="fill:black;" font-family="Arial" font-size="16px">journey_date</text>
   <rect width="137" height="20" x="371" y="374" style="fill:none;stroke:black;"/>
   <text width="137" height="20" x="376" y="388" style="fill:black;" font-family="Arial" font-size="16px">total_fare</text>
   <rect width="137" height="20" x="179" y="45" style="fill:#007;stroke:black;"/>
   <text width="137" height="20" x="184" y="59" style="fill:#fff;" font-family="Arial" font-size="16px"> bus_details</text>
   <rect width="137" height="20" x="179" y="65" style="fill:#aea;stroke:black;"/>
   <text width="137" height="20" x="184" y="79" style="fill:black;" font-family="Arial" font-size="16px">bus_no</text>
   <rect width="137" height="20" x="179" y="85" style="fill:none;stroke:black;"/>
   <text width="137" height="20" x="184" y="99" style="fill:black;" font-family="Arial" font-size="16px">bus_name</text>
   <rect width="137" height="20" x="179" y="105" style="fill:none;stroke:black;"/>
   <text width="137" height="20" x="184" y="119" style="fill:black;" font-family="Arial" font-size="16px">bus_type</text>
   <rect width="137" height="20" x="179" y="125" style="fill:none;stroke:black;"/>
   <text width="137" height="20" x="184" y="139" style="fill:black;" font-family="Arial" font-size="16px">created_at</text>
   <rect width="137" height="20" x="179" y="145" style="fill:none;stroke:black;"/>
   <text width="137" height="20" x="184" y="159" style="fill:black;" font-family="Arial" font-size="16px">total_seats</text>
   <rect width="137" height="20" x="890" y="180" style="fill:#007;stroke:black;"/>
   <text width="137" height="20" x="895" y="194" style="fill:#fff;" font-family="Arial" font-size="16px"> bus_route</text>
   <rect width="137" height="20" x="890" y="200" style="fill:#aea;stroke:black;"/>
   <text width="137" height="20" x="895" y="214" style="fill:black;" font-family="Arial" font-size="16px">id</text>
   <rect width="137" height="20" x="890" y="220" style="fill:none;stroke:black;"/>
   <text width="137" height="20" x="895" y="234" style="fill:black;" font-family="Arial" font-size="16px">bus_id</text>
   <rect width="137" height="20" x="890" y="240" style="fill:none;stroke:black;"/>
   <text width="137" height="20" x="895" y="254" style="fill:black;" font-family="Arial" font-size="16px">from_city</text>
   <rect width="137" height="20" x="890" y="260" style="fill:none;stroke:black;"/>
   <text width="137" height="20" x="895" y="274" style="fill:black;" font-family="Arial" font-size="16px">to_city</text>
   <rect width="137" height="20" x="890" y="280" style="fill:none;stroke:black;"/>
   <text width="137" height="20" x="895" y="294" style="fill:black;" font-family="Arial" font-size="16px">start_time</text>
   <rect width="137" height="20" x="890" y="300" style="fill:none;stroke:black;"/>
   <text width="137" height="20" x="895" y="314" style="fill:black;" font-family="Arial" font-size="16px">end_time</text>
   <rect width="137" height="20" x="890" y="320" style="fill:none;stroke:black;"/>
   <text width="137" height="20" x="895" y="334" style="fill:black;" font-family="Arial" font-size="16px">fare</text>
   <rect width="137" height="20" x="107" y="519" style="fill:#007;stroke:black;"/>
   <text width="137" height="20" x="112" y="533" style="fill:#fff;" font-family="Arial" font-size="16px"> card_detail</text>
   <rect width="137" height="20" x="107" y="539" style="fill:none;stroke:black;"/>
   <text width="137" height="20" x="112" y="553" style="fill:black;" font-family="Arial" font-size="16px">fk_paymt_id</text>
   <rect width="137" height="20" x="107" y="559" style="fill:none;stroke:black;"/>
   <text width="137" height="20" x="112" y="573" style="fill:black;" font-family="Arial" font-size="16px">card_hold_name</text>
   <rect width="137" height="20" x="107" y="579" style="fill:none;stroke:black;"/>
   <text width="137" height="20" x="112" y="593" style="fill:black;" font-family="Arial" font-size="16px">card_no</text>
   <rect width="137" height="20" x="107" y="599" style="fill:none;stroke:black;"/>
   <text width="137" height="20" x="112" y="613" style="fill:black;" font-family="Arial" font-size="16px">cvv</text>
   <rect width="137" height="20" x="107" y="619" style="fill:none;stroke:black;"/>
   <text width="137" height="20" x="112" y="633" style="fill:black;" font-family="Arial" font-size="16px">expiry_date</text>
   <rect width="137" height="20" x="107" y="639" style="fill:none;stroke:black;"/>
   <text width="137" height="20" x="112" y="653" style="fill:black;" font-family="Arial" font-size="16px">amount</text>
   <rect width="137" height="20" x="110" y="320" style="fill:#007;stroke:black;"/>
   <text width="137" height="20" x="115" y="334" style="fill:#fff;" font-family="Arial" font-size="16px"> contact_us</text>
   <rect width="137" height="20" x="110" y="340" style="fill:none;stroke:black;"/>
   <text width="137" height="20" x="115" y="354" style="fill:black;" font-family="Arial" font-size="16px">cust_id</text>
   <rect width="137" height="20" x="110" y="360" style="fill:#aea;stroke:black;"/>
   <text width="137" height="20" x="115" y="374" style="fill:black;" font-family="Arial" font-size="16px">id</text>
   <rect width="137" height="20" x="110" y="380" style="fill:none;stroke:black;"/>
   <text width="137" height="20" x="115" y="394" style="fill:black;" font-family="Arial" font-size="16px">query_type</text>
   <rect width="137" height="20" x="110" y="400" style="fill:none;stroke:black;"/>
   <text width="137" height="20" x="115" y="414" style="fill:black;" font-family="Arial" font-size="16px">query_message</text>
   <rect width="137" height="20" x="110" y="420" style="fill:none;stroke:black;"/>
   <text width="137" height="20" x="115" y="434" style="fill:black;" font-family="Arial" font-size="16px">query_date</text>
   <rect width="137" height="20" x="470" y="10" style="fill:#007;stroke:black;"/>
   <text width="137" height="20" x="475" y="24" style="fill:#fff;" font-family="Arial" font-size="16px"> feedback</text>
   <rect width="137" height="20" x="470" y="30" style="fill:#aea;stroke:black;"/>
   <text width="137" height="20" x="475" y="44" style="fill:black;" font-family="Arial" font-size="16px">feedback</text>
   <rect width="137" height="20" x="470" y="50" style="fill:none;stroke:black;"/>
   <text width="137" height="20" x="475" y="64" style="fill:black;" font-family="Arial" font-size="16px">passenger_name</text>
   <rect width="137" height="20" x="470" y="70" style="fill:none;stroke:black;"/>
   <text width="137" height="20" x="475" y="84" style="fill:black;" font-family="Arial" font-size="16px">passenger_email</text>
   <rect width="137" height="20" x="470" y="90" style="fill:none;stroke:black;"/>
   <text width="137" height="20" x="475" y="104" style="fill:black;" font-family="Arial" font-size="16px">comment</text>
   <rect width="137" height="20" x="470" y="110" style="fill:none;stroke:black;"/>
   <text width="137" height="20" x="475" y="124" style="fill:black;" font-family="Arial" font-size="16px">created_at</text>
   <rect width="137" height="20" x="470" y="130" style="fill:none;stroke:black;"/>
   <text width="137" height="20" x="475" y="144" style="fill:black;" font-family="Arial" font-size="16px">route_id</text>
   <rect width="137" height="20" x="160" y="200" style="fill:#007;stroke:black;"/>
   <text width="137" height="20" x="165" y="214" style="fill:#fff;" font-family="Arial" font-size="16px"> gallery</text>
   <rect width="137" height="20" x="160" y="220" style="fill:none;stroke:black;"/>
   <text width="137" height="20" x="165" y="234" style="fill:black;" font-family="Arial" font-size="16px">g_bus_no</text>
   <rect width="137" height="20" x="160" y="240" style="fill:none;stroke:black;"/>
   <text width="137" height="20" x="165" y="254" style="fill:black;" font-family="Arial" font-size="16px">img_location</text>
   <rect width="137" height="20" x="870" y="420" style="fill:#007;stroke:black;"/>
   <text width="137" height="20" x="875" y="434" style="fill:#fff;" font-family="Arial" font-size="16px"> identity</text>
   <rect width="137" height="20" x="870" y="440" style="fill:none;stroke:black;"/>
   <text width="137" height="20" x="875" y="454" style="fill:black;" font-family="Arial" font-size="16px">identity_id</text>
   <rect width="137" height="20" x="870" y="460" style="fill:none;stroke:black;"/>
   <text width="137" height="20" x="875" y="474" style="fill:black;" font-family="Arial" font-size="16px">identity_type</text>
   <rect width="137" height="20" x="870" y="480" style="fill:none;stroke:black;"/>
   <text width="137" height="20" x="875" y="494" style="fill:black;" font-family="Arial" font-size="16px">identity_detail</text>
   <rect width="137" height="20" x="460" y="530" style="fill:#007;stroke:black;"/>
   <text width="137" height="20" x="465" y="544" style="fill:#fff;" font-family="Arial" font-size="16px"> passenger_contact</text>
   <rect width="137" height="20" x="460" y="550" style="fill:#aea;stroke:black;"/>
   <text width="137" height="20" x="465" y="564" style="fill:black;" font-family="Arial" font-size="16px">passenger_id</text>
   <rect width="137" height="20" x="460" y="570" style="fill:none;stroke:black;"/>
   <text width="137" height="20" x="465" y="584" style="fill:black;" font-family="Arial" font-size="16px">p_name</text>
   <rect width="137" height="20" x="460" y="590" style="fill:none;stroke:black;"/>
   <text width="137" height="20" x="465" y="604" style="fill:black;" font-family="Arial" font-size="16px">p_email</text>
   <rect width="137" height="20" x="460" y="610" style="fill:none;stroke:black;"/>
   <text width="137" height="20" x="465" y="624" style="fill:black;" font-family="Arial" font-size="16px">p_contact</text>
   <rect width="137" height="20" x="890" y="560" style="fill:#007;stroke:black;"/>
   <text width="137" height="20" x="895" y="574" style="fill:#fff;" font-family="Arial" font-size="16px"> passenger_detail</text>
   <rect width="137" height="20" x="890" y="580" style="fill:#aea;stroke:black;"/>
   <text width="137" height="20" x="895" y="594" style="fill:black;" font-family="Arial" font-size="16px">id</text>
   <rect width="137" height="20" x="890" y="600" style="fill:none;stroke:black;"/>
   <text width="137" height="20" x="895" y="614" style="fill:black;" font-family="Arial" font-size="16px">mst_psg_id</text>
   <rect width="137" height="20" x="890" y="620" style="fill:none;stroke:black;"/>
   <text width="137" height="20" x="895" y="634" style="fill:black;" font-family="Arial" font-size="16px">passenger_name</text>
   <rect width="137" height="20" x="890" y="640" style="fill:none;stroke:black;"/>
   <text width="137" height="20" x="895" y="654" style="fill:black;" font-family="Arial" font-size="16px">gender</text>
   <rect width="137" height="20" x="890" y="660" style="fill:none;stroke:black;"/>
   <text width="137" height="20" x="895" y="674" style="fill:black;" font-family="Arial" font-size="16px">age</text>
   <rect width="137" height="20" x="890" y="680" style="fill:none;stroke:black;"/>
   <text width="137" height="20" x="895" y="694" style="fill:black;" font-family="Arial" font-size="16px">seat_no</text>
   <rect width="137" height="20" x="800" y="20" style="fill:#007;stroke:black;"/>
   <text width="137" height="20" x="805" y="34" style="fill:#fff;" font-family="Arial" font-size="16px"> payment_detail</text>
   <rect width="137" height="20" x="800" y="40" style="fill:#aea;stroke:black;"/>
   <text width="137" height="20" x="805" y="54" style="fill:black;" font-family="Arial" font-size="16px">payment_id</text>
   <rect width="137" height="20" x="800" y="60" style="fill:none;stroke:black;"/>
   <text width="137" height="20" x="805" y="74" style="fill:black;" font-family="Arial" font-size="16px">pmt_pnr_no</text>
   <rect width="137" height="20" x="800" y="80" style="fill:none;stroke:black;"/>
   <text width="137" height="20" x="805" y="94" style="fill:black;" font-family="Arial" font-size="16px">total_amount</text>
   <rect width="137" height="20" x="800" y="100" style="fill:none;stroke:black;"/>
   <text width="137" height="20" x="805" y="114" style="fill:black;" font-family="Arial" font-size="16px">payment_type</text>
</svg>
