<?xml version="1.0" encoding="utf-8"?>
<!-- Generator: Adobe Illustrator 16.0.0, SVG Export Plug-In . SVG Version: 6.00 Build 0)  -->
<!DOCTYPE svg PUBLIC "-//W3C//DTD SVG 1.1//EN" "http://www.w3.org/Graphics/SVG/1.1/DTD/svg11.dtd">
<svg version="1.1" id="Layer_1" xmlns="http://www.w3.org/2000/svg" xmlns:xlink="http://www.w3.org/1999/xlink" x="0px" y="0px"
	 width="81px" height="52px" viewBox="0 0 81 52" enable-background="new 0 0 81 52" xml:space="preserve">
<g>
	<path fill="#F89623" d="M56.102,14.959c-0.097,2.185-0.644,4.345-1.689,6.348c-4.09,7.836-14.232,10.31-22.655,5.524
		c-5.492-3.122-8.895-8.558-9.466-14.135h5.752c0,4.563,2.906,9.21,7.406,11.767c6.587,3.744,14.56,1.732,17.808-4.49
		c0.827-1.585,1.267-3.291,1.356-5.013c-1.806,0.265-3.688,1.346-3.688,1.346s4.151-4.6,4.408-4.6c0.256,0,4.408,4.6,4.408,4.6
		S57.899,15.224,56.102,14.959"/>
	<path fill="#009D57" d="M59.168,4.1c0-2.264-1.759-4.101-3.93-4.101c-2.17,0-3.929,1.837-3.929,4.101s1.759,4.101,3.929,4.101
		C57.409,8.201,59.168,6.365,59.168,4.1"/>
	<path fill="#009D57" d="M25.189,8.201c-2.17,0-3.929-1.836-3.929-4.101s1.759-4.101,3.929-4.101s3.93,1.837,3.93,4.101
		S27.359,8.201,25.189,8.201"/>
</g>
<g>
	<path fill="#009D57" d="M2.083,42.583H0v-2.15h2.083v-2.262L4.9,37.228v3.205h2.502v2.15H4.899v5.267
		c0,0.966,0.252,1.865,1.325,1.865c0.504,0,0.988-0.109,1.283-0.308l0.084,2.327c-0.589,0.175-1.241,0.264-2.083,0.264
		c-2.208,0-3.427-1.427-3.427-3.666L2.083,42.583"/>
	<path fill="#009D57" d="M9.132,40.432h2.502V43h0.042c0.126-1.053,1.283-2.831,2.965-2.831c0.275,0,0.57,0,0.864,0.087v2.962
		c-0.252-0.153-0.757-0.24-1.263-0.24c-2.292,0-2.292,2.983-2.292,4.607v4.148H9.133L9.132,40.432"/>
	<path fill="#009D57" d="M16.894,43.549c0.946-0.746,2.145-1.229,3.344-1.229c1.662,0,2.439,0.614,2.439,2.436h-1.556
		c-1.178,0-2.565,0.11-3.638,0.658c-1.072,0.55-1.85,1.537-1.85,3.227c0,2.15,1.872,3.357,3.785,3.357
		c1.283,0,2.692-0.702,3.344-1.953h0.042c0.021,0.352,0.021,1.097,0.126,1.689h2.481c-0.063-0.878-0.104-1.668-0.125-2.523
		c-0.021-0.835-0.042-1.689-0.042-2.831v-1.449c0-3.336-1.367-4.762-4.668-4.762c-1.199,0-2.671,0.33-3.764,0.855L16.894,43.549
		 M18.324,48.464c0-1.733,1.872-1.952,3.133-1.952h1.22c0,0.877-0.126,1.689-0.588,2.325c-0.442,0.614-1.114,1.01-1.977,1.01
		C19.102,49.847,18.324,49.432,18.324,48.464z"/>
	<polyline fill="#009D57" points="25.601,40.432 28.629,40.432 31.321,48.662 31.363,48.662 33.971,40.432 36.788,40.432 
		32.792,51.733 29.617,51.733 25.601,40.432 	"/>
	<path fill="#009D57" d="M46.156,48.706c-1.052,0.613-2.229,1.141-3.596,1.141c-1.747,0-2.966-1.031-3.091-2.853h7.486
		c0-3.951-1.136-6.825-5.153-6.825c-3.364,0-5.025,2.699-5.025,5.97c0,3.708,2.082,5.859,5.657,5.859c1.514,0,2.691-0.308,3.722-0.9
		V48.706 M39.468,44.975c0.125-1.515,0.925-2.655,2.503-2.655c1.577,0,2.207,1.228,2.292,2.655H39.468z"/>
	<rect x="48.625" y="35.275" fill="#009D57" width="2.818" height="16.458"/>
	<rect x="54.013" y="40.432" fill="#009D57" width="2.818" height="11.302"/>
	<path fill="#009D57" d="M59.231,40.432h2.671v1.536h0.042c0.883-1.294,2.083-1.799,3.553-1.799c2.566,0,3.681,1.887,3.681,4.433
		v7.132h-2.818v-6.034c0-1.383-0.021-3.249-1.83-3.249c-2.04,0-2.481,2.305-2.481,3.753v5.529h-2.818V40.432"/>
	<path fill="#009D57" d="M80.201,48.706c-1.052,0.613-2.229,1.141-3.597,1.141c-1.745,0-2.965-1.031-3.091-2.853H81
		c0-3.951-1.136-6.825-5.152-6.825c-3.364,0-5.026,2.699-5.026,5.97c0,3.708,2.082,5.859,5.657,5.859c1.515,0,2.691-0.308,3.723-0.9
		V48.706 M73.514,44.975c0.126-1.515,0.926-2.655,2.503-2.655c1.576,0,2.207,1.228,2.292,2.655H73.514z"/>
</g>
<path fill="#009D57" d="M57.174,37.034c0-1.009-0.784-1.827-1.751-1.827s-1.751,0.818-1.751,1.827c0,1.01,0.785,1.828,1.751,1.828
	C56.39,38.862,57.174,38.044,57.174,37.034"/>
</svg>
